HIERARCHY
ROOT Pelvis
{
	OFFSET 0.000000 0.000000 0.000000
	CHANNELS 6 Xposition Yposition Zposition Zrotation Yrotation Xrotation 
	JOINT Left_hip
	{
		OFFSET 0.069463 -0.088608 -0.009542
		CHANNELS 3 Zrotation Yrotation Xrotation
		JOINT Left_knee
		{
			OFFSET 0.030639 -0.359740 -0.005288
			CHANNELS 3 Zrotation Yrotation Xrotation
			JOINT Left_ankle
			{
				OFFSET -0.011068 -0.376034 -0.042462
				CHANNELS 3 Zrotation Yrotation Xrotation
				JOINT Left_foot
				{
					OFFSET 0.023192 -0.053321 0.111332
					CHANNELS 3 Zrotation Yrotation Xrotation
					End Site
					{
						OFFSET 0.000000 0.000000 0.000000
					}
				}
			}
		}
	}
	JOINT Right_hip
	{
		OFFSET -0.067438 -0.088025 -0.006263
		CHANNELS 3 Zrotation Yrotation Xrotation
		JOINT Right_knee
		{
			OFFSET -0.035962 -0.366229 -0.008063
			CHANNELS 3 Zrotation Yrotation Xrotation
			JOINT Right_ankle
			{
				OFFSET 0.013608 -0.375719 -0.040481
				CHANNELS 3 Zrotation Yrotation Xrotation
				JOINT Right_foot
				{
					OFFSET -0.021034 -0.045527 0.114617
					CHANNELS 3 Zrotation Yrotation Xrotation
					End Site
					{
						OFFSET 0.000000 0.000000 0.000000
					}
				}
			}
		}
	}
	JOINT Spine1
	{
		OFFSET -0.002610 0.101823 -0.019986
		CHANNELS 3 Zrotation Yrotation Xrotation
		JOINT Spine2
		{
			OFFSET 0.004114 0.128714 -0.000938
			CHANNELS 3 Zrotation Yrotation Xrotation
			JOINT Spine3
			{
				OFFSET 0.002191 0.048470 0.027684
				CHANNELS 3 Zrotation Yrotation Xrotation
				JOINT Neck
				{
					OFFSET -0.002856 0.198873 -0.044022
					CHANNELS 3 Zrotation Yrotation Xrotation
					JOINT Head
					{
						OFFSET 0.002981 0.062960 0.049860
						CHANNELS 3 Zrotation Yrotation Xrotation
						End Site
						{
							OFFSET 0.000000 0.000000 0.000000
						}
					}
				}
				JOINT Left_collar
				{
					OFFSET 0.073708 0.112550 -0.033440
					CHANNELS 3 Zrotation Yrotation Xrotation
					JOINT Left_shoulder
					{
						OFFSET 0.083291 0.030786 -0.008013
						CHANNELS 3 Zrotation Yrotation Xrotation
						JOINT Left_elbow
						{
							OFFSET 0.245601 -0.011792 -0.027873
							CHANNELS 3 Zrotation Yrotation Xrotation
							JOINT Left_wrist
							{
								OFFSET 0.232258 0.008622 -0.000487
								CHANNELS 3 Zrotation Yrotation Xrotation
								JOINT Left_palm
								{
									OFFSET 0.077300 -0.009457 -0.012851
									CHANNELS 3 Zrotation Yrotation Xrotation
									End Site
									{
										OFFSET 0.000000 0.000000 0.000000
									}
								}
							}
						}
					}
				}
				JOINT Right_collar
				{
					OFFSET -0.075339 0.110574 -0.037874
					CHANNELS 3 Zrotation Yrotation Xrotation
					JOINT Right_shoulder
					{
						OFFSET -0.086522 0.031207 -0.009986
						CHANNELS 3 Zrotation Yrotation Xrotation
						JOINT Right_elbow
						{
							OFFSET -0.237313 -0.011478 -0.019859
							CHANNELS 3 Zrotation Yrotation Xrotation
							JOINT Right_wrist
							{
								OFFSET -0.237599 0.007976 -0.003742
								CHANNELS 3 Zrotation Yrotation Xrotation
								JOINT Right_palm
								{
									OFFSET -0.076920 -0.006943 -0.009920
									CHANNELS 3 Zrotation Yrotation Xrotation
									End Site
									{
										OFFSET 0.000000 0.000000 0.000000
									}
								}
							}
						}
					}
				}
			}
		}
	}
}
MOTION
Frames: 16
Frame Time: 0.100000
0.000000 0.000000 0.000000 15.373595 47.436460 -172.545171 0.352753 6.535108 12.475802 0.922287 -5.781861 -0.549442 6.112963 7.893018 -4.000358 -8.804015 10.187789 -2.257513 -2.457967 -4.603779 12.682273 -1.244536 1.967377 -1.510478 -2.896399 -2.348629 -5.631422 11.139151 -4.894536 6.812961 2.823013 0.328041 10.073562 0.618942 -2.550954 4.421838 1.090737 -1.613206 -0.998424 1.001080 3.951783 10.662493 -5.551056 4.409584 1.753520 -30.364741 3.137565 3.498980 -52.325225 -3.625141 5.636658 3.066215 -11.260228 13.117066 -12.045151 3.841020 2.647342 -9.887695 -4.367119 -12.599109 29.280106 3.299120 3.095663 49.959346 10.918548 10.586554 -10.272397 18.817570 -7.296865 5.609770 -1.597546 -2.777717 13.833331 8.659664 -5.768940 
-0.004541 0.000276 -0.001904 14.808934 46.087693 -173.943771 0.861353 6.967328 13.194273 0.652319 -6.479141 0.283622 6.320631 7.265576 -4.181622 -9.562217 10.026529 -2.428670 -2.538779 -5.108697 13.600796 -1.117678 1.709569 -0.524718 -3.964984 -2.586060 -6.189376 12.413240 -5.450711 7.059149 2.649651 0.365219 9.830252 0.771939 -2.859679 5.048964 1.059490 -1.860813 -0.811674 1.085301 3.003774 11.520168 -5.404740 3.570317 1.866826 -30.448301 2.582382 4.120375 -52.300060 -3.287933 6.504399 1.529114 -10.547522 16.741275 -12.650810 4.340601 4.226222 -10.201959 -4.389008 -13.324869 29.583726 3.240454 3.377999 49.981721 10.077062 10.144260 -9.624978 17.401376 -6.149034 6.067464 -1.878430 -2.246155 14.002441 8.806305 -5.967473 
-0.010515 0.001504 -0.004775 12.046045 41.154650 -176.447627 0.799362 6.793834 14.097654 0.333156 -8.682487 -0.321673 7.869125 5.542001 -3.724804 -12.137734 9.787917 -2.302951 -3.044049 -4.934084 15.489937 -0.840585 1.366818 -0.566023 -7.145881 -4.960186 -7.607312 15.372175 -6.442678 8.891610 1.690107 0.228618 7.691820 1.086391 -4.740641 6.240871 0.739873 -3.117989 -0.646435 0.725950 3.219763 13.358258 -5.295405 3.256352 1.745678 -29.186588 -3.282855 6.225005 -50.019955 -5.583507 11.441292 -3.704992 -10.991438 32.016474 -14.564493 6.599412 12.450987 -11.958829 -4.739282 -16.220278 29.798104 4.166885 4.665239 50.400621 7.363917 9.709154 -8.272572 13.631350 -0.896794 8.226965 -2.744422 0.401316 14.777865 9.454565 -7.583560 
-0.021726 0.001603 -0.004342 9.964804 36.756106 -178.173078 1.590209 6.582274 15.421756 -0.023199 -10.697956 -1.791948 6.554730 4.149228 -3.287415 -12.305519 8.486133 -2.712862 -2.404239 -5.926941 16.477000 -2.002441 0.184511 0.920376 -7.527704 -7.047129 -10.350848 15.983673 -5.875758 8.481002 0.317869 -0.081922 6.919018 1.353724 -5.121750 5.293326 0.790433 -3.600284 -0.272146 -0.062578 4.438826 13.809251 -5.104645 3.075598 3.710161 -26.004115 -3.494152 5.874082 -47.478136 -8.767599 12.650919 -5.235511 -21.781645 36.097263 -10.380932 3.943345 12.151874 -10.448404 -3.873722 -13.128247 29.943701 2.219160 4.483039 51.790085 3.317921 10.080274 -6.929796 11.167196 1.871744 8.462455 -2.859872 1.068446 12.795451 8.766155 -6.287501 
-0.039751 0.002640 -0.005264 9.051756 35.907502 -179.220754 1.527830 6.056515 16.295778 0.425175 -11.438067 -1.064383 6.900426 4.513865 -3.493180 -12.882051 8.520505 -3.337942 -2.206892 -6.301085 18.523811 -2.163357 0.483575 0.179957 -7.383164 -7.906563 -11.174574 15.275999 -4.802685 8.286941 0.222722 0.331325 5.411297 1.079414 -5.009110 4.732277 0.710584 -3.546334 -0.092621 -1.374314 5.962026 16.191456 -5.533228 4.675493 5.309408 -24.994970 -4.173021 4.469102 -46.456429 -11.838632 10.551949 -2.125858 -18.784981 31.447882 -9.682491 5.641833 11.737389 -9.902123 -3.784848 -11.533793 29.724611 0.902415 5.047344 53.132157 0.564500 10.639434 -6.172468 8.988078 3.216501 9.430603 -3.621035 1.211945 12.490942 8.752059 -5.648428 
-0.065968 0.005982 -0.006270 9.566994 38.498094 -179.867970 2.042094 6.356023 17.286440 1.129728 -10.847892 2.019893 8.333598 5.994174 -5.211820 -14.348806 9.009534 -3.059081 -1.868385 -6.913941 21.113759 -1.842165 1.583043 -1.094552 -7.699400 -6.939681 -10.324550 15.766121 -4.525038 8.635543 0.321810 0.463641 4.268861 0.838276 -5.094688 4.780795 0.625569 -3.586413 -0.180283 -2.098158 8.138716 18.878312 -7.132345 7.497515 6.082962 -25.965207 -3.391075 4.411970 -44.841763 -11.420819 7.462357 0.668614 -11.795725 25.747895 -11.143820 8.483002 10.268432 -10.344394 -4.237523 -11.433613 30.847984 0.108786 5.022605 52.444156 1.276563 10.031378 -6.042941 6.153611 1.090198 10.012742 -4.611812 0.331962 13.861926 9.205218 -5.498313 
-0.078475 0.012648 0.003043 10.801775 39.576854 -176.916422 2.238454 4.343282 6.800702 0.267622 -7.503961 18.048796 8.252070 7.636441 -7.793469 -13.679650 8.523761 -5.120270 -0.536538 -7.174930 20.028617 -0.780387 2.427922 -3.011719 -7.445263 -5.447588 -11.384080 13.658947 -5.796826 8.827451 1.222678 1.175305 6.325945 1.159652 -5.224287 0.928236 1.236104 -3.426415 -0.232638 -3.263971 9.381833 15.711876 -7.661994 9.344824 5.962944 -25.599596 -1.066589 3.293842 -46.507009 -9.179632 7.310839 1.357161 -12.251852 25.161394 -10.808565 7.958023 8.855731 -10.879676 -4.144840 -10.859630 30.236251 -1.414648 3.459148 52.429975 2.147168 9.430427 -6.929555 8.045381 -0.361742 8.677063 -3.691676 -1.884032 14.434914 9.107795 -5.192496 
-0.091368 0.014638 0.016917 11.419548 36.035869 -173.662904 2.773330 -1.887406 -12.988611 -0.040015 -2.003259 44.615245 4.663586 8.367249 -0.643509 -9.758551 8.753113 -10.831501 3.037777 -6.914313 17.344196 -0.717279 1.884453 -3.523640 -9.090805 -8.032628 -11.930088 9.274348 -5.855045 8.378143 2.841974 2.181608 12.455486 1.151834 -6.388012 0.313265 2.735762 -3.511300 0.045821 -8.411228 11.081567 1.022263 -7.889614 12.097163 -3.962612 -24.948602 -4.696181 2.502044 -48.355078 -8.578701 7.373906 3.318805 -12.608868 21.677047 -9.833845 7.112917 6.206904 -10.395987 -3.981426 -9.669422 28.833826 2.674620 3.879389 52.954351 3.574216 9.985998 -8.514632 12.959589 -1.251186 6.629931 -2.587905 -4.364693 13.597021 8.287147 -4.801746 
-0.096854 0.017153 0.013635 10.220121 34.827175 -171.580314 1.982894 -2.676457 -26.983246 0.124975 5.843275 48.993169 3.829429 7.725224 0.183623 -7.894832 9.185218 -11.049764 2.986181 -7.321216 14.396034 -1.239280 0.928417 -2.714241 -7.260127 -8.117287 -12.538556 5.924720 -5.348454 6.256393 4.825155 3.262219 18.720649 0.103481 -5.713051 -2.668304 2.818289 -2.272160 -0.049924 -13.386110 13.015092 -10.625667 -9.959203 14.842081 -9.611189 -24.373742 -6.023743 0.645153 -51.129955 -7.799536 7.077314 4.376068 -11.075661 19.543557 -8.472269 5.158791 4.960616 -9.231746 -3.474001 -9.012454 27.006674 5.574934 4.244719 52.364240 5.772515 10.297733 -7.809018 12.129501 -2.058899 4.721137 -1.283415 -4.204730 12.563263 7.546573 -5.031083 
-0.117572 0.021944 -0.018786 7.899270 33.348480 -171.411332 -0.809415 -2.603138 -28.316293 -0.920019 8.386374 29.265632 3.144264 6.565124 0.465466 -5.664618 9.544330 -7.365017 1.914013 -8.354852 16.954754 -2.255456 0.044927 -5.052246 -4.963302 -9.209283 -12.341768 5.001122 -3.899369 5.135271 4.486172 4.481131 19.253864 -1.172133 -5.151991 -2.997170 1.979125 -1.318195 0.258739 -14.051648 12.669179 -13.160336 -10.224357 12.856924 -10.561783 -23.826308 -5.053814 0.025044 -51.788265 -6.989038 6.967448 4.857406 -9.894859 18.274897 -8.269871 3.995259 4.612746 -7.733614 -3.166430 -9.423222 26.192038 6.424809 4.113485 53.170956 7.235702 10.642040 -6.858533 9.256902 -2.609943 4.844252 -0.718105 -2.994672 11.299209 7.065530 -5.350034 
-0.150365 0.036725 -0.068834 8.063864 33.259325 -170.412038 -2.246704 -1.244989 -24.148026 -0.742445 7.587307 6.727620 1.658395 6.316790 2.041786 -2.588097 8.980129 -3.791173 1.421978 -9.205468 20.774120 -2.426694 -0.137748 -6.211168 -4.807259 -8.976745 -12.798867 7.603504 -4.433360 5.286716 4.487378 5.027831 18.081685 -1.663885 -4.619753 -2.151540 1.786393 -0.479249 0.117322 -13.542972 12.796893 -11.833404 -10.601205 11.063110 -10.741019 -23.569624 -3.763776 0.058391 -52.206798 -4.846100 7.001697 5.023338 -8.820101 17.189592 -8.316892 3.316410 3.936488 -6.835324 -2.860288 -10.705055 25.549954 7.273053 4.332802 52.816078 9.209626 10.850092 -6.707340 9.297158 -2.759502 4.961371 -0.066693 -2.727181 10.407998 6.629850 -5.758766 
-0.189982 0.055490 -0.144912 8.505173 33.264633 -168.580480 -3.489434 -0.479220 -20.369914 -1.030067 7.722690 0.057571 0.588589 6.577613 4.673427 -0.319108 8.486047 -3.801094 0.231695 -9.357183 23.584750 -2.575175 0.313305 -4.352165 -3.009091 -8.603193 -11.561527 6.175535 -3.852260 3.037536 3.958714 5.221854 14.772981 -1.703865 -4.510349 -1.824145 1.532880 -0.431882 0.048822 -12.471604 12.859319 -10.693685 -10.430156 11.118744 -11.044228 -23.007792 -1.101236 0.309835 -53.154772 -2.107536 6.467506 5.091072 -7.902503 16.776511 -7.745212 2.997523 3.514725 -7.462539 -3.032314 -12.208481 24.520793 5.549104 3.530694 53.967131 9.105724 11.625363 -8.092057 14.547148 -2.690357 4.130963 0.715390 -3.807873 10.745004 6.510490 -6.063321 
-0.229312 0.064559 -0.249571 7.347294 31.773804 -168.515661 -5.292925 -2.169608 -16.334504 -1.858377 4.080171 2.174890 1.141072 5.751153 7.797401 0.680163 8.376015 -6.317934 -2.749680 -8.827445 23.162400 -2.719436 1.562848 6.330962 2.993133 -7.869575 -3.061715 -0.191846 -1.462029 -3.589573 2.522163 5.449176 10.191318 -1.495618 -3.883332 -1.326536 0.935590 -0.547038 0.131259 -10.765136 11.711281 -8.517772 -9.007757 11.682617 -10.227975 -21.723166 1.661054 0.860865 -54.968984 -1.069565 6.339305 4.942493 -7.630492 16.846633 -7.193843 3.312258 3.143617 -9.759335 -4.139803 -14.083557 22.875687 2.188632 3.161550 57.190575 6.026167 12.444795 -10.493682 19.331831 -3.956108 4.117017 0.888117 -5.149439 12.443502 6.980268 -6.855135 
-0.261042 0.069866 -0.343517 6.798351 30.026365 -171.738092 -7.696483 -0.433627 -5.302592 -2.407498 -1.050019 1.139316 7.445281 5.726773 3.740549 -2.790599 8.287910 -6.829876 -6.927730 -8.281954 12.952566 -1.997169 0.452600 35.562931 11.517919 -9.060779 16.111185 -7.529222 -0.057280 -14.365886 0.819141 3.587930 7.342868 -0.217974 -1.862205 -0.185344 0.893291 -0.684839 0.696370 -7.237880 9.172733 -2.423812 -6.859233 12.928152 -7.918915 -17.649646 3.009966 2.963760 -59.598707 -2.301126 6.435244 3.804657 -8.147051 20.082752 -9.017959 3.752457 1.386440 -10.890729 -5.388826 -16.713033 18.804849 1.005756 3.435073 61.489464 5.041311 12.789560 -9.381255 16.867844 -4.123612 6.475231 -0.043840 -5.219815 13.923119 7.565640 -8.290708 
-0.288493 0.080263 -0.413743 7.541095 25.524871 -174.985487 -6.850984 3.197332 6.848094 -1.838338 -8.540513 -2.460783 9.540065 5.540475 1.546289 -5.763378 7.948217 -7.421836 -7.859604 -7.905083 0.171192 -3.221126 -5.652416 58.618013 6.020313 -11.110969 14.237495 -1.417449 -1.085801 -13.550298 1.353453 -0.393806 8.624482 0.662682 -1.054563 0.877266 1.028284 -1.779685 0.159984 -4.700676 8.043991 1.266203 -6.711364 12.171387 -8.201011 -17.362586 1.231958 4.643276 -58.639858 -3.663128 6.002042 3.396726 -8.225840 21.061077 -11.301914 4.819744 0.460114 -9.010389 -4.452335 -17.390855 18.816597 2.307341 4.124221 61.682378 4.612383 11.347060 -9.137762 13.785724 -4.745636 8.729867 -1.192479 -5.406228 11.328820 6.791323 -7.036984 
-0.320694 0.083502 -0.477115 9.062222 18.766621 -175.800968 -3.424876 5.024195 14.793879 0.418573 -14.382591 -4.786288 5.949544 5.435648 1.669044 -4.717862 5.858958 -8.899293 -5.778367 -6.664149 -11.621627 -4.739928 -12.318331 57.193895 1.126694 -11.831233 5.115409 2.186083 -3.734457 -7.513942 3.467865 -4.164650 10.255082 1.029514 -1.183738 0.344951 1.938599 -2.765926 0.142075 -4.979538 7.603633 2.084586 -5.571486 10.728054 -9.547179 -15.208448 -0.959388 4.992853 -59.825279 -5.144399 6.991939 3.352949 -9.711532 21.924077 -11.953412 4.201531 -0.340334 -6.347986 -2.745841 -15.855257 16.686145 2.709387 4.646966 63.182263 2.894893 9.287245 -8.775758 12.608728 -3.057853 10.050142 -1.116528 -7.441164 7.880915 5.611555 -5.323057 
